<!DOCTYPE svg PUBLIC "-//W3C//DTD SVG 20010904//EN" "http://www.w3.org/TR/2001/REC-SVG-20010904/DTD/svg10.dtd">
<svg version="1.0" xmlns="http://www.w3.org/2000/svg" width="128px" height="128px" viewBox="0 0 1280 1280" preserveAspectRatio="xMidYMid meet">
<g id="layer101" fill="#004e80" stroke="none">
 <path d="M0 640 l0 -640 640 0 640 0 0 640 0 640 -640 0 -640 0 0 -640z"/>
 </g>
<g id="layer102" fill="#025d98" stroke="none">
 <path d="M0 640 l0 -640 640 0 640 0 0 640 0 640 -640 0 -640 0 0 -640z m461 373 c15 -9 31 -24 34 -32 4 -11 -1 -9 -17 5 -13 12 -32 26 -43 32 -11 6 -16 12 -12 12 5 0 22 -8 38 -17z m326 -360 c-4 -3 -10 -3 -14 0 -3 4 0 7 7 7 7 0 10 -3 7 -7z m-197 -283 c6 -11 9 -20 7 -20 -2 0 -12 9 -22 20 -10 11 -13 20 -7 20 6 0 16 -9 22 -20z"/>
 </g>
<g id="layer103" fill="#016cb1" stroke="none">
 <path d="M0 640 l0 -640 640 0 640 0 0 640 0 640 -640 0 -640 0 0 -640z m444 396 c54 -22 73 -56 86 -154 6 -48 23 -143 36 -212 29 -153 30 -191 4 -221 -10 -13 -19 -19 -20 -13 0 6 7 17 16 25 18 15 17 35 -16 194 -12 61 -24 124 -26 140 -2 17 -6 46 -9 65 -3 19 -7 50 -10 69 -5 41 -18 57 -68 82 -41 21 -95 27 -137 15 l-25 -7 25 15 c32 19 101 20 144 2z m-99 -146 c-9 -18 -19 -29 -22 -26 -4 3 2 22 13 41 10 20 20 31 22 26 2 -5 -4 -24 -13 -41z m403 -53 c6 -7 14 -40 18 -73 11 -93 17 -102 65 -106 23 -2 44 -8 46 -14 2 -7 -15 -9 -54 -6 -32 2 -59 5 -60 6 -1 1 -4 27 -7 58 -8 91 -17 129 -33 135 -13 5 -48 -8 -84 -32 -8 -5 -2 2 13 18 31 29 78 36 96 14z m251 -5 c5 -9 16 -67 25 -127 8 -61 24 -146 36 -189 27 -105 26 -148 -2 -172 l-23 -19 19 22 c17 21 18 28 6 85 -6 35 -18 81 -25 103 -14 40 -20 80 -31 185 -6 66 -24 120 -39 120 -6 0 -28 -9 -50 -20 -48 -25 -57 -19 -13 9 41 26 84 27 97 3z m-569 -287 c-7 -8 -17 -15 -23 -15 -5 0 -2 9 8 20 21 23 35 19 15 -5z m387 -57 c26 -78 26 -103 1 -129 -13 -14 -17 -17 -9 -7 15 19 12 58 -12 131 -11 34 -12 47 -4 44 7 -2 17 -19 24 -39z m-230 -101 c27 -24 41 -83 24 -100 -8 -8 -11 -5 -11 14 0 32 -34 86 -60 94 -13 4 -34 -1 -56 -14 -19 -12 -32 -16 -29 -10 14 21 67 47 88 41 12 -2 32 -14 44 -25z"/>
 </g>
<g id="layer104" fill="#007bca" stroke="none">
 <path d="M0 640 l0 -640 640 0 640 0 0 640 0 640 -640 0 -640 0 0 -640z m445 401 c63 -29 75 -49 91 -153 8 -51 26 -150 39 -221 30 -154 31 -187 5 -219 -19 -25 -19 -25 2 -44 29 -26 50 -79 42 -109 -3 -14 -19 -32 -35 -40 -42 -22 -59 -18 -21 5 37 23 41 50 13 97 -28 45 -54 50 -103 18 -22 -15 -38 -21 -36 -13 2 7 30 30 61 51 31 20 61 47 68 58 12 23 12 22 -21 184 -12 61 -24 124 -26 140 -2 17 -6 46 -9 65 -3 19 -7 50 -10 69 -5 42 -18 57 -68 83 -44 22 -121 28 -139 10 -15 -15 -28 -15 -28 -2 0 16 60 39 100 39 19 0 53 -8 75 -18z m-75 -111 c0 -17 -27 -65 -45 -80 -13 -11 -15 -10 -9 6 18 57 54 105 54 74z m384 -92 c8 -13 18 -51 21 -84 4 -34 10 -66 14 -72 4 -6 24 -13 46 -15 25 -3 41 -10 43 -19 2 -12 -8 -14 -55 -10 -32 2 -59 5 -60 6 -1 1 -4 30 -7 66 -13 136 -28 151 -101 101 -47 -32 -60 -26 -22 10 46 43 99 51 121 17z m250 0 c7 -13 19 -66 26 -118 7 -52 23 -139 36 -193 13 -54 24 -113 24 -131 0 -37 -28 -69 -75 -85 -28 -10 -29 -10 -11 4 11 8 23 15 27 15 4 0 14 12 24 26 16 24 16 30 0 102 -10 43 -21 84 -25 92 -8 14 -16 69 -25 170 -3 25 -10 62 -17 83 -10 34 -14 38 -37 32 -14 -3 -43 -20 -64 -37 l-39 -31 14 27 c32 61 115 86 142 44z m-578 -296 c-14 -14 -29 -23 -32 -19 -10 10 37 58 48 50 6 -3 -2 -17 -16 -31z m401 -37 c16 -105 15 -136 -3 -156 -19 -21 -66 -49 -81 -49 -4 0 9 12 30 27 21 15 40 37 43 50 5 20 -17 118 -33 146 -3 5 5 7 18 5 13 -2 24 -11 26 -23z"/>
 </g>
<g id="layer105" fill="#2a77a9" stroke="none">
 <path d="M0 640 l0 -640 640 0 640 0 0 640 0 640 -640 0 -640 0 0 -640z m467 403 c51 -26 68 -65 88 -203 9 -63 25 -155 36 -205 24 -111 24 -156 1 -185 -18 -22 -17 -23 9 -51 72 -77 29 -169 -81 -169 -57 0 -90 34 -90 92 0 24 4 49 9 57 6 10 -1 24 -25 48 -43 43 -47 94 -9 133 l24 25 -25 140 c-31 175 -32 177 -50 143 -14 -27 -58 -47 -72 -34 -3 4 4 9 16 13 12 3 22 11 22 18 0 21 34 75 45 72 13 -4 37 -101 63 -252 l21 -120 -31 -31 c-35 -37 -32 -65 11 -101 38 -33 73 -29 116 12 42 39 42 29 5 210 -12 61 -24 124 -26 140 -2 17 -6 46 -9 65 -3 19 -7 50 -10 69 -5 42 -18 57 -68 83 -46 23 -119 27 -142 8 -18 -15 -30 -7 -22 14 15 38 128 43 194 9z m287 -186 c11 -8 21 -38 29 -92 12 -73 15 -79 40 -86 l28 -7 -3 63 c-2 52 2 68 17 85 26 29 68 50 98 50 48 0 57 -18 77 -155 10 -72 28 -164 39 -205 36 -133 26 -172 -56 -207 -72 -30 -93 -8 -118 121 -7 38 -19 73 -27 77 -19 13 -44 5 -39 -12 2 -8 6 -40 9 -72 5 -67 -5 -84 -68 -112 -49 -22 -84 -14 -99 22 -17 41 -81 381 -81 429 0 47 19 75 65 99 37 18 66 19 89 2z"/>
 <path d="M482 379 c-38 -25 -49 -57 -30 -96 11 -23 20 -29 56 -31 51 -4 92 18 92 49 0 42 -45 99 -77 99 -4 0 -23 -10 -41 -21z"/>
 <path d="M657 814 c-21 -14 -41 -32 -44 -40 -3 -8 7 -77 21 -152 15 -75 34 -173 43 -217 8 -44 19 -85 24 -91 14 -17 53 -5 89 27 36 33 37 51 7 142 l-15 48 56 -7 c68 -8 72 -10 72 -35 0 -34 30 -156 43 -173 11 -14 16 -14 52 3 61 27 70 52 49 141 -9 41 -20 82 -24 90 -8 14 -16 70 -25 170 -3 25 -10 62 -17 83 -10 34 -14 38 -37 32 -14 -4 -41 -18 -60 -32 -35 -27 -36 -36 -15 -139 l6 -31 -59 5 c-32 2 -59 5 -60 6 -1 1 -4 30 -7 66 -12 133 -29 150 -99 104z"/>
 </g>
<g id="layer106" fill="#0089e2" stroke="none">
 <path d="M0 640 l0 -640 640 0 640 0 0 640 0 640 -640 0 -640 0 0 -640z m467 403 c51 -26 68 -65 88 -203 9 -63 25 -155 36 -205 24 -111 24 -156 1 -185 -18 -22 -17 -23 9 -51 72 -77 29 -169 -81 -169 -57 0 -90 34 -90 92 0 24 4 49 9 57 6 10 -1 24 -25 48 -43 43 -47 94 -9 133 l24 25 -25 140 c-30 171 -32 177 -46 150 -15 -28 -38 -45 -62 -45 -19 1 -19 2 -5 13 9 7 26 31 38 55 12 24 27 42 34 39 15 -4 38 -94 65 -252 l21 -120 -31 -31 c-35 -37 -32 -65 11 -101 32 -28 64 -29 102 -2 50 35 52 47 25 176 -13 65 -32 170 -41 233 -9 63 -21 123 -26 132 -17 32 -87 60 -138 56 -25 -3 -54 -8 -65 -13 -14 -6 -17 -4 -14 11 8 44 123 54 195 17z m287 -186 c11 -8 21 -38 29 -92 12 -73 15 -79 40 -86 l28 -7 -3 63 c-2 52 2 68 17 85 26 29 68 50 98 50 48 0 57 -18 77 -155 10 -72 28 -164 39 -205 36 -133 26 -172 -56 -207 -72 -30 -93 -8 -118 121 -7 38 -19 73 -27 77 -19 13 -44 5 -39 -12 2 -8 6 -40 9 -72 5 -67 -5 -84 -68 -112 -49 -22 -84 -14 -99 22 -17 41 -81 381 -81 429 0 47 19 75 65 99 37 18 66 19 89 2z"/>
 <path d="M482 379 c-38 -25 -49 -57 -30 -96 11 -23 20 -29 56 -31 51 -4 92 18 92 49 0 42 -45 99 -77 99 -4 0 -23 -10 -41 -21z"/>
 <path d="M675 821 c-68 -30 -71 -39 -52 -139 10 -48 29 -148 43 -222 14 -74 30 -141 37 -147 10 -10 21 -8 56 9 61 30 67 50 43 137 l-19 72 56 -7 c31 -3 59 -9 62 -13 3 -3 11 -37 18 -75 7 -38 18 -84 26 -102 13 -31 16 -33 43 -23 16 5 42 23 57 39 l27 28 -26 100 c-14 55 -33 151 -42 213 -9 63 -20 122 -26 132 -11 22 -38 16 -87 -21 -35 -26 -36 -35 -15 -138 l6 -31 -59 5 c-32 2 -59 5 -60 6 -1 0 -7 39 -13 86 -14 106 -22 115 -75 91z"/>
 </g>
<g id="layer107" fill="#feffff" stroke="none">
 <path d="M278 1010 c-44 -24 -78 -65 -78 -95 0 -30 40 -65 76 -65 26 0 33 7 52 46 12 25 28 44 35 42 15 -5 38 -94 65 -253 l21 -120 -31 -31 c-34 -36 -32 -57 9 -98 31 -31 65 -33 104 -5 50 35 52 47 25 176 -13 65 -32 170 -41 233 -9 63 -21 123 -26 132 -15 28 -84 58 -131 58 -24 -1 -59 -10 -80 -20z"/>
 <path d="M675 821 c-68 -30 -71 -39 -51 -139 9 -48 26 -136 37 -197 34 -188 42 -199 115 -154 44 27 49 50 25 132 l-19 68 57 -7 c31 -3 59 -8 62 -10 4 -2 9 -26 13 -53 3 -27 13 -72 22 -100 13 -44 18 -51 40 -51 14 0 40 14 61 33 l36 33 -27 101 c-14 55 -33 152 -42 214 -9 63 -20 122 -26 132 -11 22 -38 16 -87 -21 -35 -26 -36 -35 -15 -138 l6 -31 -59 5 c-32 2 -59 5 -60 6 -1 0 -7 39 -13 86 -14 106 -22 115 -75 91z"/>
 <path d="M482 379 c-38 -25 -49 -57 -30 -96 11 -23 20 -29 56 -31 51 -4 92 18 92 49 0 42 -45 99 -77 99 -4 0 -23 -10 -41 -21z"/>
 </g>

</svg>